<?xml version="1.0" encoding="UTF-8"?>
<svg version="1.1" xmlns="http://www.w3.org/2000/svg" width="500" height="500">
<path d="M0 0 C1.34750062 -0.00734613 2.69499496 -0.01593395 4.04248047 -0.02566528 C7.69136229 -0.04783382 11.34001797 -0.05081431 14.98895788 -0.04891777 C18.04050823 -0.04879784 21.09201105 -0.05737102 24.14354813 -0.06569529 C31.3460567 -0.08491284 38.54844938 -0.08781932 45.75097656 -0.08105469 C53.16857222 -0.07441595 60.58567035 -0.09727489 68.00316513 -0.13436842 C74.38300522 -0.16510914 80.76268564 -0.17642071 87.14259827 -0.1725316 C90.948 -0.17046847 94.75301454 -0.17587508 98.55834579 -0.20042419 C102.13894171 -0.22276152 105.71873137 -0.22075688 109.29933167 -0.20049667 C111.23007027 -0.19548588 113.16082437 -0.21505515 115.09146118 -0.23550415 C123.62541799 -0.15328919 128.45362114 1.56296363 134.76611328 7.19335938 C141.71376086 15.59611898 142.9355812 23.66381826 142.87548828 34.31445312 C142.87336586 35.73548592 142.87336586 35.73548592 142.87120056 37.18522644 C142.86561815 40.20099082 142.85306885 43.21668006 142.84033203 46.23242188 C142.83531476 48.28124893 142.83075225 50.33007714 142.82666016 52.37890625 C142.81565447 57.39260693 142.79840191 62.40625168 142.77783203 67.41992188 C143.69029426 67.4171565 143.69029426 67.4171565 144.62119007 67.41433525 C159.46280208 67.3700536 174.30440767 67.33701557 189.14606953 67.31629753 C196.32355951 67.30601064 203.50100523 67.29200013 210.6784668 67.26904297 C216.93861284 67.24902949 223.19872682 67.23618666 229.45890397 67.23174489 C232.7697451 67.22915089 236.08047379 67.22203875 239.39129066 67.20846176 C243.09872419 67.19386793 246.80596994 67.19194725 250.51342773 67.19287109 C251.59596832 67.18568054 252.67850891 67.17848999 253.79385376 67.17108154 C269.69515394 67.21374065 282.03011464 71.07218052 293.66064453 82.27539062 C294.35931641 82.98308594 295.05798828 83.69078125 295.77783203 84.41992188 C296.70595703 85.34804687 297.63408203 86.27617188 298.59033203 87.23242188 C305.36107629 97.09836351 306.52487324 106.70614769 306.40673828 118.36132812 C306.40756899 119.86156893 306.41003595 121.36180962 306.41404724 122.86204529 C306.41688257 125.97935944 306.40241353 129.09594592 306.37475586 132.21313477 C306.34040709 136.20815274 306.34680018 140.20189447 306.36541843 144.19697666 C306.3759719 147.28281846 306.36707045 150.36836194 306.35203362 153.45417595 C306.346857 154.92817233 306.34732733 156.40219988 306.35357857 157.87619209 C306.35902189 159.92734517 306.33869998 161.97664608 306.3112793 164.02758789 C306.30198143 165.77532249 306.30198143 165.77532249 306.29249573 167.55836487 C305.77783203 170.41992188 305.77783203 170.41992188 304.11070251 172.3011322 C301.20038059 173.69685397 299.14210723 173.76223221 295.91845703 173.71289062 C294.80341797 173.70322266 293.68837891 173.69355469 292.53955078 173.68359375 C291.38068359 173.65845703 290.22181641 173.63332031 289.02783203 173.60742188 C287.85349609 173.59388672 286.67916016 173.58035156 285.46923828 173.56640625 C282.57163905 173.53106967 279.67496776 173.48173166 276.77783203 173.41992188 C276.78671448 174.12513977 276.79559692 174.83035767 276.80474854 175.5569458 C276.88494126 182.20731896 276.94581984 188.85755693 276.98508072 195.5083046 C277.00594404 198.92745868 277.03423708 202.34621282 277.07958984 205.76513672 C277.13141821 209.69689118 277.15078781 213.62848445 277.16845703 217.56054688 C277.18910217 218.78670715 277.20974731 220.01286743 277.23101807 221.27618408 C277.23132019 222.41706482 277.23162231 223.55794556 277.23193359 224.73339844 C277.24081604 225.73711487 277.24969849 226.7408313 277.2588501 227.77496338 C276.64668048 231.14108066 275.39332451 232.29035624 272.77783203 234.41992188 C272.11783203 234.74992188 271.45783203 235.07992187 270.77783203 235.41992188 C270.34508255 238.59478994 270.34508255 238.59478994 270.21533203 242.29492188 C269.87093965 249.14059902 269.87093965 249.14059902 268.77783203 252.41992188 C269.72658203 252.68804687 270.67533203 252.95617187 271.65283203 253.23242188 C274.77783203 254.41992188 274.77783203 254.41992188 276.77783203 257.41992188 C276.96796781 260.45620202 277.03847914 263.40002408 277.01834106 266.43644714 C277.02090434 267.83686696 277.02090434 267.83686696 277.0235194 269.26557809 C277.02682474 272.40719095 277.01579337 275.54859222 277.00488281 278.69018555 C277.00431892 280.93690486 277.00463482 283.18362453 277.00576782 285.43034363 C277.00634321 291.5415734 276.99455882 297.65272516 276.98061991 303.76393676 C276.96814351 310.14611274 276.96694449 316.52829039 276.96456909 322.91047668 C276.95905298 333.62645072 276.94654839 344.34239053 276.92871094 355.05834961 C276.91035637 366.09643408 276.8961978 377.13451077 276.88769531 388.17260742 C276.88716987 388.85285424 276.88664442 389.53310106 276.88610305 390.23396143 C276.883493 393.64651772 276.88096558 397.05907407 276.87847924 400.47163045 C276.85774164 428.78774736 276.82236311 457.10383308 276.77783203 485.41992188 C277.51420898 485.39897461 278.25058594 485.37802734 279.00927734 485.35644531 C282.34865646 485.27325044 285.68781752 485.22125031 289.02783203 485.16992188 C290.18669922 485.13640625 291.34556641 485.10289062 292.53955078 485.06835938 C293.65458984 485.05546875 294.76962891 485.04257812 295.91845703 485.02929688 C296.94487305 485.00834961 297.97128906 484.98740234 299.02880859 484.96582031 C302.48553173 485.53682431 303.63302564 486.71084174 305.77783203 489.41992188 C306.58259244 492.72134057 306.52875833 496.1550508 304.75522232 499.14242041 C301.6192134 501.1684524 298.31650326 500.82983313 294.7020874 500.7974453 C293.86546806 500.80180562 293.02884871 500.80616594 292.16687727 500.8106584 C289.3387922 500.8216833 286.5111877 500.81115912 283.68310547 500.8008728 C281.64500044 500.80432651 279.60689729 500.80908913 277.56879807 500.81505454 C271.94894011 500.82763364 266.32923404 500.82136286 260.70937538 500.81209588 C254.65613373 500.8053339 248.60291899 500.8157724 242.54968262 500.82403564 C231.37034056 500.83663214 220.19104742 500.83550181 209.01170635 500.82730124 C198.68516717 500.81976317 188.35864586 500.81778045 178.03210449 500.82136917 C177.34789078 500.82159833 176.66367706 500.82182748 175.95872959 500.82206358 C173.18148528 500.82299755 170.40424098 500.82395275 167.62699668 500.82494287 C141.55890734 500.83412585 115.49084903 500.82579002 89.42276448 500.80965218 C66.24813495 500.7954147 43.07355488 500.79668856 19.89892578 500.81103516 C-6.12060175 500.82708898 -32.14010184 500.83347468 -58.15963364 500.82419837 C-60.93190256 500.82323617 -63.70417149 500.82229765 -66.47644043 500.82136917 C-67.50039228 500.82101332 -67.50039228 500.82101332 -68.54503003 500.82065029 C-78.86665676 500.8172337 -89.1882637 500.82123644 -99.5098877 500.82880783 C-111.24263553 500.83737128 -122.97533612 500.8349819 -134.70808029 500.8189656 C-140.69924487 500.81105782 -146.69030885 500.8080338 -152.68147278 500.81791306 C-158.15883258 500.82680875 -163.63599791 500.82201229 -169.1133399 500.8059804 C-171.10184838 500.80261074 -173.09037307 500.80437518 -175.07887125 500.81160776 C-177.76829357 500.82064439 -180.45703733 500.81146193 -183.14642334 500.7974453 C-184.32213544 500.80798054 -184.32213544 500.80798054 -185.52159929 500.81872863 C-190.68899736 500.76437903 -190.68899736 500.76437903 -193.19955826 499.14242041 C-194.97309426 496.1550508 -195.02692838 492.72134057 -194.22216797 489.41992188 C-192.07736158 486.71084174 -190.92986767 485.53682431 -187.47314453 484.96582031 C-185.93352051 484.99724121 -185.93352051 484.99724121 -184.36279297 485.02929688 C-183.24775391 485.0421875 -182.13271484 485.05507813 -180.98388672 485.06835938 C-179.24558594 485.11863281 -179.24558594 485.11863281 -177.47216797 485.16992188 C-176.29783203 485.18796875 -175.12349609 485.20601563 -173.91357422 485.22460938 C-171.01561457 485.27173067 -168.11930379 485.33750882 -165.22216797 485.41992188 C-165.22585514 484.24855808 -165.22954231 483.07719429 -165.23334122 481.87033463 C-165.31993884 454.07579696 -165.38591307 426.28126979 -165.42642929 398.48662557 C-165.43143222 395.06692983 -165.4366095 391.64723438 -165.44189453 388.22753906 C-165.44294377 387.54672814 -165.44399301 386.86591721 -165.44507405 386.16447565 C-165.46248786 375.13523956 -165.49403088 364.10608671 -165.53077915 353.07690004 C-165.56816152 341.76319786 -165.59009858 330.44955746 -165.59852195 319.13578963 C-165.60374581 312.77961414 -165.61606009 306.42362757 -165.6450882 300.06751251 C-165.6721719 294.08889831 -165.68062717 288.11055144 -165.67459869 282.13188171 C-165.67570208 279.93401895 -165.68369759 277.73614755 -165.69898987 275.53833771 C-165.71880722 272.54412721 -165.71413707 269.55093429 -165.70318604 266.55670166 C-165.7148374 265.68121681 -165.72648877 264.80573197 -165.7384932 263.90371728 C-165.680157 258.02791363 -165.680157 258.02791363 -163.37960434 254.97387314 C-161.68551522 253.75366013 -159.95931239 252.57801815 -158.22216797 251.41992188 C-157.86248967 248.83323546 -157.71243459 246.56906671 -157.72216797 243.98242188 C-157.67962891 242.96051758 -157.67962891 242.96051758 -157.63623047 241.91796875 C-157.57056954 239.65921112 -157.57056954 239.65921112 -158.22216797 236.41992188 C-160.55958226 234.56214947 -160.55958226 234.56214947 -163.22216797 233.41992188 C-165.49338506 230.01309624 -165.46685683 228.84195004 -165.44921875 224.84692383 C-165.44906769 223.70596756 -165.44891663 222.56501129 -165.44876099 221.38948059 C-165.43843842 220.15815903 -165.42811584 218.92683746 -165.41748047 217.65820312 C-165.41465057 216.39727341 -165.41182068 215.13634369 -165.40890503 213.83720398 C-165.39959922 210.48831765 -165.381635 207.13970397 -165.35949707 203.79089355 C-165.33902182 200.3723384 -165.32989973 196.95375507 -165.31982422 193.53515625 C-165.29774977 186.83000268 -165.26426159 180.12497802 -165.22216797 173.41992188 C-166.3267334 173.44348755 -166.3267334 173.44348755 -167.45361328 173.4675293 C-170.79305326 173.52992659 -174.13237052 173.56892805 -177.47216797 173.60742188 C-178.63103516 173.63255859 -179.78990234 173.65769531 -180.98388672 173.68359375 C-182.65644531 173.6980957 -182.65644531 173.6980957 -184.36279297 173.71289062 C-185.38920898 173.72860107 -186.415625 173.74431152 -187.47314453 173.76049805 C-190.72108324 173.35811132 -192.0441285 172.87015398 -194.22216797 170.41992188 C-194.73683167 167.59632874 -194.73683167 167.59632874 -194.75561523 164.11938477 C-194.77145157 162.81695328 -194.7872879 161.51452179 -194.80360413 160.17262268 C-194.79975932 158.74593755 -194.79471841 157.31925521 -194.78857422 155.89257812 C-194.79381263 154.42345282 -194.80008991 152.9543309 -194.80735779 151.48521423 C-194.81777818 148.39908083 -194.81318607 145.31340783 -194.79858398 142.22729492 C-194.78152438 138.30338323 -194.80472001 134.38095356 -194.84007359 130.45720768 C-194.86223516 127.41731859 -194.86055924 124.3777726 -194.85230827 121.33782768 C-194.85149639 119.89357329 -194.85821156 118.4492917 -194.8730793 117.0051136 C-194.99653344 102.8236963 -191.22416835 92.04034383 -181.55419922 81.62304688 C-169.33851021 69.85014403 -154.41555612 67.08321618 -138.04956055 67.19287109 C-136.88727936 67.19257904 -135.72499817 67.19228699 -134.52749634 67.19198608 C-130.7238187 67.19336834 -126.92034222 67.20887735 -123.11669922 67.22460938 C-120.46440805 67.22834344 -117.81212771 67.23128706 -115.15983582 67.23318481 C-108.91633306 67.23937128 -102.67290135 67.25574321 -96.42942971 67.27588379 C-89.314447 67.29833165 -82.19946069 67.30925844 -75.08445132 67.31927466 C-60.46365376 67.34011236 -45.84291186 67.37523249 -31.22216797 67.41992188 C-31.24573364 65.55243286 -31.24573364 65.55243286 -31.26977539 63.6472168 C-31.32450082 58.98240756 -31.35867164 54.3176261 -31.38696289 49.65258789 C-31.40195313 47.64212251 -31.42235225 45.63168929 -31.44848633 43.62133789 C-31.79711378 16.09344085 -31.79711378 16.09344085 -23.90966797 7.91992188 C-23.17103516 7.12585938 -22.43240234 6.33179688 -21.67138672 5.51367188 C-14.8777977 -0.29392575 -8.57848684 -0.02001186 0 0 Z M-117.22216797 357.41992188 C-117.22216797 399.65992188 -117.22216797 441.89992188 -117.22216797 485.41992188 C-100.39216797 485.41992188 -83.56216797 485.41992188 -66.22216797 485.41992188 C-66.55216797 470.23992187 -66.88216797 455.05992187 -67.22216797 439.41992188 C-71.18216797 438.75992188 -75.14216797 438.09992188 -79.22216797 437.41992188 C-84.75142536 434.35756394 -86.70478067 432.27276195 -89.22216797 426.41992188 C-89.746055 421.97052241 -89.6956089 417.52761695 -89.66821289 413.05224609 C-89.65968882 410.92512617 -89.68852572 408.80068437 -89.72021484 406.67382812 C-89.72182697 405.3079435 -89.7212491 403.94205418 -89.71826172 402.57617188 C-89.72104126 400.73249023 -89.72104126 400.73249023 -89.72387695 398.8515625 C-88.98775807 393.81658097 -86.52557698 390.80000201 -83.09716797 387.16992188 C-80.22216797 385.41992188 -80.22216797 385.41992188 -70.22216797 383.41992188 C-70.22216797 374.83992188 -70.22216797 366.25992187 -70.22216797 357.41992188 C-85.73216797 357.41992188 -101.24216797 357.41992188 -117.22216797 357.41992188 Z M181.77783203 357.41992188 C181.77783203 365.99992187 181.77783203 374.57992188 181.77783203 383.41992188 C185.07783203 384.07992188 188.37783203 384.73992187 191.77783203 385.41992188 C196.35704839 386.75552665 196.35704839 386.75552665 197.96533203 389.29492188 C198.23345703 389.99617188 198.50158203 390.69742188 198.77783203 391.41992188 C199.11693604 391.98163086 199.45604004 392.54333984 199.80541992 393.12207031 C201.81842565 397.87888927 201.18987825 403.41791513 201.20336914 408.52685547 C201.21522056 410.64995318 201.26438266 412.77009726 201.31494141 414.89257812 C201.39720641 421.62659854 201.35534522 427.28925816 197.34448242 432.93066406 C191.5053497 438.48134345 187.19825936 438.01651732 178.77783203 439.41992188 C178.44783203 454.59992188 178.11783203 469.77992188 177.77783203 485.41992188 C194.60783203 485.41992188 211.43783203 485.41992188 228.77783203 485.41992188 C228.77783203 443.17992187 228.77783203 400.93992187 228.77783203 357.41992188 C213.26783203 357.41992188 197.75783203 357.41992188 181.77783203 357.41992188 Z M-50.22216797 439.41992188 C-50.22216797 444.03992188 -50.22216797 448.65992188 -50.22216797 453.41992188 C19.73783203 453.41992188 89.69783203 453.41992188 161.77783203 453.41992188 C161.77783203 448.79992187 161.77783203 444.17992187 161.77783203 439.41992188 C91.81783203 439.41992188 21.85783203 439.41992188 -50.22216797 439.41992188 Z M-50.22216797 469.41992188 C-50.22216797 474.69992187 -50.22216797 479.97992188 -50.22216797 485.41992188 C19.73783203 485.41992188 89.69783203 485.41992188 161.77783203 485.41992188 C161.77783203 480.13992188 161.77783203 474.85992187 161.77783203 469.41992188 C91.81783203 469.41992188 21.85783203 469.41992188 -50.22216797 469.41992188 Z " fill="#07090A" transform="translate(194.22216796875,-0.419921875)"/>
<path d="M0 0 C114.84 0 229.68 0 348 0 C348 55.44 348 110.88 348 168 C332.16 168 316.32 168 300 168 C299.75 146.5625 299.75 146.5625 299.70214844 139.84985352 C299.67274732 138.06784531 299.64191597 136.28585989 299.609375 134.50390625 C299.60824707 133.59991089 299.60711914 132.69591553 299.60595703 131.76452637 C299.41251572 123.05612858 296.61170414 115.97094653 290.71484375 109.50390625 C284.59922501 104.14055041 277.70427674 102.85099542 269.81004333 102.85282898 C268.96515683 102.84915229 268.12027032 102.8454756 267.24978119 102.8416875 C264.40796978 102.83064131 261.56619492 102.8268052 258.72436523 102.82299805 C256.6909117 102.81673399 254.65745931 102.81008724 252.62400818 102.80308533 C245.93554483 102.78203187 239.24708122 102.77168029 232.55859375 102.76171875 C230.25602773 102.75767138 227.95346184 102.75355446 225.65089607 102.74936867 C214.83120934 102.73031251 204.01152944 102.71608356 193.19182914 102.7077567 C180.70565721 102.69798868 168.21966276 102.67168217 155.73355335 102.63125581 C146.08161025 102.60107927 136.42971797 102.58628627 126.77772862 102.58297569 C121.01385794 102.58062654 115.25017677 102.57168375 109.48635674 102.54651451 C104.06004455 102.52320272 98.63404623 102.5190132 93.20769691 102.52927589 C91.22037588 102.52977064 89.23303923 102.52346832 87.24576569 102.50971985 C71.34778055 102.2026457 71.34778055 102.2026457 57.37890625 109.078125 C56.77949219 109.79484375 56.18007812 110.5115625 55.5625 111.25 C54.94503906 111.95640625 54.32757813 112.6628125 53.69140625 113.390625 C49.26982256 120.21191347 48.54272138 126.47976725 48.48828125 134.40625 C48.47164429 135.2631543 48.45500732 136.12005859 48.43786621 137.00292969 C48.38053944 140.16837654 48.34793256 143.33423237 48.3125 146.5 C48.209375 153.595 48.10625 160.69 48 168 C32.16 168 16.32 168 0 168 C0 112.56 0 57.12 0 0 Z " fill="#96E3F7" transform="translate(76,173)"/>
<path d="M0 0 C1.25296388 -0.00445668 1.25296388 -0.00445668 2.53124017 -0.0090034 C5.34637286 -0.01771493 8.16146315 -0.01920072 10.97660828 -0.02069092 C12.98847037 -0.02531736 15.00033159 -0.03034178 17.01219177 -0.03573608 C22.48950677 -0.04887894 27.9668095 -0.05530873 33.44413781 -0.05974674 C36.8637326 -0.06267446 40.28332401 -0.0667787 43.7029171 -0.07125092 C54.39498832 -0.08493088 65.08705186 -0.09459506 75.77913123 -0.09845281 C88.13459019 -0.10293478 100.48993858 -0.12048708 112.84536391 -0.1494534 C122.386807 -0.17104844 131.92821894 -0.18115592 141.46968621 -0.18249393 C147.17245394 -0.18354353 152.87511781 -0.18948425 158.57785988 -0.20731354 C163.9417274 -0.22375654 169.30541257 -0.22596807 174.66929626 -0.21717453 C176.6393603 -0.21640213 178.60943398 -0.2207735 180.5794735 -0.23063278 C183.26658009 -0.24329324 185.95303511 -0.23750771 188.64013672 -0.22705078 C189.42185267 -0.23510719 190.20356863 -0.24316359 191.00897294 -0.25146413 C198.27661629 -0.1852059 200.95641308 2.08631115 206.01054382 7.14044189 C206.01054382 35.85044189 206.01054382 64.56044189 206.01054382 94.14044189 C132.75054382 94.14044189 59.49054382 94.14044189 -15.98945618 94.14044189 C-15.98945618 7.45294189 -15.98945618 7.45294189 -11.98945618 2.82794189 C-8.17924424 -0.38692443 -4.77821555 -0.00525139 0 0 Z " fill="#E9E9E9" transform="translate(154.9894561767578,289.85955810546875)"/>
<path d="M0 0 C1.58757866 -0.01279495 1.58757866 -0.01279495 3.20722961 -0.02584839 C4.35802002 -0.02494202 5.50881042 -0.02403564 6.69447327 -0.02310181 C7.91451553 -0.02981903 9.1345578 -0.03653625 10.39157104 -0.04345703 C13.73049061 -0.05918427 17.06916142 -0.06581106 20.40810084 -0.0670886 C22.49585897 -0.06851221 24.58359117 -0.07278571 26.67134285 -0.07808304 C33.95966874 -0.09657184 41.24792158 -0.1047549 48.53627014 -0.10317993 C55.32272864 -0.10197812 62.10886933 -0.12309097 68.8952474 -0.15466726 C74.72895453 -0.18084058 80.56255789 -0.19154683 86.39632326 -0.19026911 C89.8774675 -0.18975988 93.35832902 -0.19542148 96.8394146 -0.21662521 C100.72221621 -0.23963171 104.60458337 -0.23048018 108.48744202 -0.21841431 C110.21059128 -0.23527283 110.21059128 -0.23527283 111.96855164 -0.25247192 C117.98637307 -0.20490021 122.05817786 -0.0556568 126.65565491 4.26742554 C129.28316282 7.95611672 130.02909346 10.44778202 130.01641846 14.95585632 C130.02055095 16.08787885 130.02468344 17.21990137 130.02894115 18.38622761 C130.01814683 19.62359763 130.0073525 20.86096766 129.99623108 22.13583374 C129.99531155 23.47809161 129.99571344 24.82035093 129.99732685 26.16260815 C129.99800299 29.75091182 129.98063998 33.33891421 129.95949554 36.92714691 C129.94238639 40.29654607 129.94160486 43.66593245 129.93946838 47.03536987 C129.92373843 56.88359486 129.88185484 66.73176403 129.84315491 76.57992554 C129.78127991 98.58680054 129.71940491 120.59367554 129.65565491 143.26742554 C82.13565491 143.26742554 34.61565491 143.26742554 -14.34434509 143.26742554 C-14.42684509 120.93055054 -14.50934509 98.59367554 -14.59434509 75.57992554 C-14.63076111 68.52528931 -14.66717712 61.47065308 -14.70469666 54.20223999 C-14.72276306 45.5920105 -14.72276306 45.5920105 -14.72612 41.56202698 C-14.72984884 38.74545201 -14.74484686 35.92917817 -14.76664734 33.11268616 C-14.7940914 29.51945787 -14.80230862 25.92666723 -14.7966342 22.33334386 C-14.79838028 20.39318541 -14.81983126 18.4530753 -14.84206009 16.5130434 C-14.8365501 15.36422782 -14.83104012 14.21541224 -14.82536316 13.03178406 C-14.82905033 12.03348226 -14.8327375 11.03518045 -14.83653641 10.00662708 C-14.1932548 6.42655989 -12.91180344 4.8149637 -10.34434509 2.26742554 C-6.84834297 0.39237971 -3.93321562 0.01437981 0 0 Z " fill="#EED405" transform="translate(192.34434509277344,14.732574462890625)"/>
<path d="M0 0 C1.21031891 -0.00029205 2.42063782 -0.00058411 3.66763306 -0.00088501 C6.97305638 0.00026665 10.27822752 0.01027243 13.58360624 0.02426291 C17.04292267 0.03679567 20.50224274 0.03794277 23.96157837 0.04031372 C30.50628151 0.04652102 37.05091755 0.06292165 43.59559119 0.0830127 C51.7806742 0.10759219 59.96576818 0.11851533 68.15087891 0.12939453 C82.74598321 0.14885369 97.34094117 0.18892136 111.93603516 0.22705078 C111.93603516 24.97705078 111.93603516 49.72705078 111.93603516 75.22705078 C62.43603516 75.22705078 12.93603516 75.22705078 -38.06396484 75.22705078 C-38.06396484 19.48153448 -38.06396484 19.48153448 -27.95458984 8.91064453 C-19.39274468 1.2863568 -11.18712701 -0.07069181 0 0 Z " fill="#8D7F8E" transform="translate(52.06396484375,82.77294921875)"/>
<path d="M0 0 C30.5868648 -0.16065467 30.5868648 -0.16065467 45.72949409 -0.20101547 C53.90878752 -0.22315395 62.08791722 -0.25123022 70.26708984 -0.30175781 C76.74440399 -0.34175279 83.2215944 -0.36746281 89.69902861 -0.37635398 C93.12564333 -0.38154748 96.55190421 -0.39366631 99.978405 -0.42292023 C103.8131258 -0.45206026 107.64711945 -0.45595137 111.48193359 -0.45410156 C112.60547241 -0.46848267 113.72901123 -0.48286377 114.88659668 -0.49768066 C123.63772268 -0.4521605 131.86158243 1.24256827 138.375 7.5 C139.28378906 8.35078125 139.28378906 8.35078125 140.2109375 9.21875 C146.98878105 15.96699598 146.14390884 15.57563537 149 27 C149 42.84 149 58.68 149 75 C99.83 75 50.66 75 0 75 C0 50.25 0 25.5 0 0 Z " fill="#8F818F" transform="translate(336,83)"/>
<path d="M0 0 C1.25528 -0.01283524 2.51056 -0.02567047 3.80387878 -0.03889465 C5.17694706 -0.04706434 6.55001982 -0.05450764 7.9230957 -0.0612793 C8.96311706 -0.06739259 8.96311706 -0.06739259 10.02414894 -0.07362938 C13.6967603 -0.09447733 17.36933449 -0.10878237 21.04199219 -0.11816406 C24.82028579 -0.12920312 28.59798633 -0.16357671 32.37607098 -0.20333576 C35.29389985 -0.22958957 38.21158956 -0.23786377 41.12952614 -0.24144554 C42.52128907 -0.24629194 43.9130466 -0.25785004 45.30469322 -0.27648354 C53.25650613 -0.37630431 59.17275048 -0.26433078 65.91137695 4.17700195 C68.28637695 6.67700195 68.28637695 6.67700195 69.91137695 9.17700195 C70.27231445 9.7184082 70.63325195 10.25981445 71.00512695 10.81762695 C72.34489199 14.30563594 72.12084817 17.74925508 72.03637695 21.42700195 C72.02735352 22.17208008 72.01833008 22.9171582 72.0090332 23.68481445 C71.98556054 25.51568254 71.94969221 27.34638434 71.91137695 29.17700195 C73.00579102 29.13188477 74.10020508 29.08676758 75.2277832 29.0402832 C78.91137695 29.17700195 78.91137695 29.17700195 81.84887695 31.36450195 C83.91137695 34.17700195 83.91137695 34.17700195 84.47387695 36.73950195 C83.74104392 39.91511177 82.39735609 41.12972502 79.91137695 43.17700195 C77.2025836 44.53139863 74.90204428 44.24201646 71.91137695 44.17700195 C71.9202594 44.76724655 71.92914185 45.35749115 71.93829346 45.96562195 C72.02684703 52.11370145 72.08714443 58.26159954 72.13110352 64.41015625 C72.15120801 66.70417643 72.17849587 68.99814543 72.21313477 71.29199219 C72.26170255 74.59103021 72.28435772 77.88939017 72.30200195 81.1887207 C72.32264709 82.21285568 72.34329224 83.23699066 72.36456299 84.29216003 C72.36597478 88.78100772 72.36549103 91.41889416 70.02075195 95.33325195 C67.91137695 97.17700195 67.91137695 97.17700195 65.77075195 97.6652832 C65.0746582 97.60727539 64.37856445 97.54926758 63.66137695 97.48950195 C62.42387695 97.38637695 61.18637695 97.28325195 59.91137695 97.17700195 C59.9577832 97.84086914 60.00418945 98.50473633 60.05200195 99.1887207 C60.22739397 103.47956117 60.29654649 106.40666287 58.34887695 110.30200195 C55.91137695 112.17700195 55.91137695 112.17700195 52.41137695 112.80200195 C48.91137695 112.17700195 48.91137695 112.17700195 46.47387695 110.30200195 C44.91137695 107.17700195 44.91137695 107.17700195 44.91137695 97.17700195 C32.37137695 97.17700195 19.83137695 97.17700195 6.91137695 97.17700195 C6.91137695 100.47700195 6.91137695 103.77700195 6.91137695 107.17700195 C5.91137695 110.30200195 5.91137695 110.30200195 3.91137695 112.17700195 C0.65462546 112.69394663 -1.01945604 112.91804831 -4.08862305 112.17700195 C-6.58862305 110.30200195 -6.58862305 110.30200195 -8.08862305 107.17700195 C-8.39664364 103.81444377 -8.32386709 100.54229866 -8.08862305 97.17700195 C-10.04174805 97.33976237 -11.99487305 97.50252279 -13.94799805 97.6652832 C-16.08862305 97.17700195 -16.08862305 97.17700195 -18.19799805 95.33325195 C-20.98762282 90.67619241 -20.58665194 86.5166613 -20.47924805 81.1887207 C-20.47358826 80.13038528 -20.46792847 79.07204987 -20.46209717 77.98164368 C-20.43974653 74.60879869 -20.38955081 71.23702465 -20.33862305 67.86450195 C-20.31855643 65.57480378 -20.30030594 63.28508891 -20.28393555 60.99536133 C-20.2398861 55.38887751 -20.17298658 49.78301626 -20.08862305 44.17700195 C-21.9893457 44.24081055 -21.9893457 44.24081055 -23.9284668 44.3059082 C-27.33964576 44.42042388 -27.83645998 44.37996247 -30.65112305 42.11450195 C-32.5248781 38.28552424 -32.21825006 36.24365919 -31.08862305 32.17700195 C-30.02612305 30.23950195 -30.02612305 30.23950195 -28.08862305 29.17700195 C-25.41565816 29.03398167 -22.76737824 29.1311421 -20.08862305 29.17700195 C-20.14663086 28.11481445 -20.20463867 27.05262695 -20.2644043 25.95825195 C-20.79933273 12.07636697 -20.79933273 12.07636697 -16.58862305 6.6574707 C-11.49184949 1.62706138 -6.9857572 0.06216925 0 0 Z " fill="#090701" transform="translate(224.088623046875,29.822998046875)"/>
<path d="M0 0 C85.8 0 171.6 0 260 0 C261.24497833 2.48995665 261.12934372 4.18994911 261.1328125 6.97265625 C261.13410156 7.95427734 261.13539063 8.93589844 261.13671875 9.94726562 C261.13285156 10.97529297 261.12898438 12.00332031 261.125 13.0625 C261.12886719 14.09439453 261.13273437 15.12628906 261.13671875 16.18945312 C261.13478516 17.65995117 261.13478516 17.65995117 261.1328125 19.16015625 C261.13168457 20.06386963 261.13055664 20.96758301 261.12939453 21.89868164 C261 24 261 24 260 25 C258.60918389 25.09738578 257.21345055 25.12555421 255.81922913 25.12584114 C254.91217193 25.12844889 254.00511473 25.13105664 253.07057095 25.13374341 C252.06251935 25.13151268 251.05446775 25.12928196 250.01586914 25.12698364 C248.95399667 25.12854363 247.8921242 25.13010362 246.79807377 25.13171089 C243.21042082 25.1357259 239.62280957 25.13252931 236.03515625 25.12939453 C233.47508723 25.13074835 230.9150184 25.13252817 228.35494995 25.13470459 C222.10559736 25.1388051 215.85626042 25.13818556 209.60690761 25.13529195 C204.5301839 25.13303815 199.45346356 25.13272529 194.3767395 25.13381577 C193.65556979 25.133969 192.93440008 25.13412223 192.19137675 25.13428011 C190.72656401 25.13459982 189.26175127 25.13492403 187.79693854 25.1352527 C174.04521457 25.13810767 160.29349726 25.13482021 146.54177439 25.12945233 C134.72934366 25.12498428 122.91692275 25.12576021 111.10449219 25.13037109 C97.40365531 25.13571656 83.70282428 25.13783297 70.0019865 25.13475883 C68.54241117 25.13444026 67.08283583 25.13412589 65.6232605 25.13381577 C64.90502753 25.13366149 64.18679456 25.13350721 63.44679695 25.13334826 C58.37323146 25.13248303 53.29966966 25.13394613 48.22610474 25.13629532 C41.40379223 25.13938463 34.58150124 25.13720099 27.75918961 25.13140106 C25.24724483 25.13007269 22.7352985 25.13046887 20.22335434 25.13266373 C16.81025826 25.13537223 13.397223 25.1319978 9.98413086 25.12698364 C8.97607926 25.12921436 7.96802767 25.13144509 6.92942905 25.13374341 C6.02237185 25.13113566 5.11531466 25.12852791 4.18077087 25.12584114 C3.39187438 25.12567879 2.60297789 25.12551644 1.79017544 25.12534916 C0 25 0 25 -1 24 C-1.0991918 22.38916255 -1.1307982 20.77404356 -1.1328125 19.16015625 C-1.13410156 18.17982422 -1.13539062 17.19949219 -1.13671875 16.18945312 C-1.13285156 15.15755859 -1.12898438 14.12566406 -1.125 13.0625 C-1.12886719 12.03447266 -1.13273437 11.00644531 -1.13671875 9.94726562 C-1.13542969 8.96564453 -1.13414063 7.98402344 -1.1328125 6.97265625 C-1.13168457 6.06781494 -1.13055664 5.16297363 -1.12939453 4.23071289 C-1 2 -1 2 0 0 Z " fill="#E9E9E9" transform="translate(120,398)"/>
<path d="M0 0 C114.84 0 229.68 0 348 0 C348 55.44 348 110.88 348 168 C332.16 168 316.32 168 300 168 C300 167.67 300 167.34 300 167 C315.51 167 331.02 167 347 167 C347 116.84 347 66.68 347 15 C247.67 15 148.34 15 46 15 C46.495 19.455 46.495 19.455 47 24 C45.38522841 26.61103169 44.22459182 28.10181465 42.05859375 30.12890625 C41.53870377 30.6488768 41.01881378 31.16884735 40.48316956 31.70457458 C39.38431959 32.79274982 38.27329742 33.86875548 37.15112305 34.93286133 C35.43811194 36.56191806 33.77201626 38.22984973 32.10742188 39.90820312 C31.03114819 40.96349568 29.95244831 42.01632067 28.87109375 43.06640625 C28.3739537 43.56314346 27.87681366 44.05988068 27.36460876 44.57167053 C24.81793908 46.95064079 23.26929778 47.96308723 19.78149414 48.44116211 C17 48 17 48 14.625 45.875 C12.70875691 42.48472376 12.56863562 40.84199045 13 37 C14.65234375 34.71411133 14.65234375 34.71411133 16.9375 32.58203125 C18.15566406 31.41317383 18.15566406 31.41317383 19.3984375 30.22070312 C20.25695312 29.42599609 21.11546875 28.63128906 22 27.8125 C23.6938883 26.22161843 25.38173016 24.62426627 27.0625 23.01953125 C28.19365234 21.96922729 28.19365234 21.96922729 29.34765625 20.89770508 C31.32833431 19.04228572 31.32833431 19.04228572 31 16 C16.15 15.505 16.15 15.505 1 15 C1 65.16 1 115.32 1 167 C16.51 167 32.02 167 48 167 C48 167.33 48 167.66 48 168 C32.16 168 16.32 168 0 168 C0 112.56 0 57.12 0 0 Z " fill="#66D6F4" transform="translate(76,173)"/>
<path d="M0 0 C5.61 0 11.22 0 17 0 C17 102.96 17 205.92 17 312 C11.39 312 5.78 312 0 312 C-0.00358253 310.24018893 -0.00358253 310.24018893 -0.00723743 308.44482613 C-0.06455218 280.61802015 -0.13725047 252.79128749 -0.22898628 224.96457303 C-0.24025494 221.54230036 -0.25139331 218.12002727 -0.26245117 214.69775391 C-0.26465486 214.01641836 -0.26685854 213.33508281 -0.269129 212.63310073 C-0.30453656 201.58963658 -0.32938113 190.5461725 -0.35034702 179.50267257 C-0.3720816 168.17763089 -0.40533353 156.85267419 -0.44870156 145.52769077 C-0.47270369 139.16382477 -0.49138655 132.80004081 -0.49761391 126.43613052 C-0.50363326 120.45257261 -0.52351814 114.46922482 -0.55427551 108.48574448 C-0.56310653 106.28384608 -0.56676795 104.08192028 -0.56500816 101.88000488 C-0.56336966 98.88518002 -0.57993213 95.89100669 -0.60127258 92.89627075 C-0.59642501 92.01496022 -0.59157743 91.13364969 -0.58658296 90.22563279 C-0.58225298 87.57030664 -0.58225298 87.57030664 -1 84 C-4.44450737 81.70366176 -6.93812283 81.45983515 -11 81 C-10.51015625 80.66097656 -10.0203125 80.32195312 -9.515625 79.97265625 C-7.24265552 77.01428102 -7.64196161 74.0061431 -7.75 70.4375 C-7.75515625 69.75236328 -7.7603125 69.06722656 -7.765625 68.36132812 C-7.78627878 64.55308514 -7.78627878 64.55308514 -9 61 C-7.865625 60.525625 -6.73125 60.05125 -5.5625 59.5625 C-2.24259834 58.36377917 -2.24259834 58.36377917 -1 57 C-0.87677242 55.22096643 -0.82210981 53.43713797 -0.79467773 51.65405273 C-0.77473251 50.5129454 -0.75478729 49.37183807 -0.73423767 48.19615173 C-0.70916893 46.33368553 -0.70916893 46.33368553 -0.68359375 44.43359375 C-0.66281265 43.16983414 -0.64203156 41.90607452 -0.62062073 40.60401917 C-0.56616286 37.23881367 -0.5159572 33.87359827 -0.46777344 30.50830078 C-0.41760241 27.07644099 -0.36189345 23.64467169 -0.30664062 20.21289062 C-0.19929805 13.47533008 -0.09806829 6.73770166 0 0 Z " fill="#27A1F8" transform="translate(44,173)"/>
<path d="M0 0 C5.61 0 11.22 0 17 0 C17.0093457 1.71098877 17.01869141 3.42197754 17.02832031 5.18481445 C17.06383575 10.83682444 17.11762549 16.48846235 17.18390274 22.14019489 C17.22341908 25.56703423 17.25558656 28.99361504 17.27099609 32.4206543 C17.28903149 36.36019933 17.33896431 40.29902769 17.390625 44.23828125 C17.39185364 45.46960281 17.39308228 46.70092438 17.39434814 47.96955872 C17.41406677 49.11051498 17.4337854 50.25147125 17.45410156 51.42700195 C17.46298401 52.432939 17.47186646 53.43887604 17.48101807 54.47529602 C17.77359259 57.12988531 17.77359259 57.12988531 19.89349365 58.77409363 C21.89608928 59.93952792 23.89838048 61.02424808 26 62 C25.85899143 64.27113803 25.71203245 66.54190725 25.5625 68.8125 C25.48128906 70.07707031 25.40007812 71.34164062 25.31640625 72.64453125 C25 76 25 76 24 79 C25.32 79.66 26.64 80.32 28 81 C26.72125 81.12375 25.4425 81.2475 24.125 81.375 C20.65209064 81.69042399 20.65209064 81.69042399 18 84 C17.79408201 86.99526608 17.71494758 89.89916936 17.7215271 92.89627075 C17.7157347 93.82902954 17.7099423 94.76178833 17.70397437 95.72281253 C17.68688613 98.86748885 17.6840903 102.01201919 17.68115234 105.15673828 C17.67186025 107.40331384 17.66169267 109.64988592 17.65071106 111.89645386 C17.62331593 118.01183548 17.60823355 124.12719396 17.59528303 130.24262094 C17.57969397 136.62750321 17.55289039 143.01233789 17.5272522 149.39718628 C17.48571977 160.1191084 17.45114675 170.84102719 17.421875 181.56298828 C17.3917025 192.60792914 17.35735824 203.65284399 17.31738281 214.69775391 C17.31369049 215.71851822 17.31369049 215.71851822 17.30992357 216.75990404 C17.29754923 220.17373127 17.28509264 223.58755819 17.27259517 227.00138497 C17.16897962 255.3342203 17.0799399 283.66708867 17 312 C11.39 312 5.78 312 0 312 C0 209.04 0 106.08 0 0 Z " fill="#27A1F8" transform="translate(439,173)"/>
<path d="M0 0 C5.3686451 -0.27298195 8.60420678 -0.41895028 13 3 C34.46961677 24.46961677 17 63.63737678 17 94 C-56.26 94 -129.52 94 -205 94 C-205 90.04 -205 86.08 -205 82 C-137.35 81.67 -69.7 81.34 0 81 C0.33 80.01 0.66 79.02 1 78 C1.66 78 2.32 78 3 78 C3.06955307 68.8291416 3.12283813 59.6583742 3.15543652 50.48730946 C3.17108322 46.22866808 3.19230318 41.97020734 3.22631836 37.71166992 C3.25894752 33.60086482 3.27686051 29.49023332 3.28463173 25.3793087 C3.29016887 23.81203161 3.30098165 22.24476387 3.31719017 20.67756081 C3.33901228 18.47990107 3.34196501 16.28295597 3.34057617 14.08520508 C3.34723801 12.83500076 3.35389984 11.58479645 3.36076355 10.29670715 C2.9710102 6.7350872 1.98398242 4.92781176 0 2 C0 1.34 0 0.68 0 0 Z " fill="#C6C6C6" transform="translate(344,290)"/>
<path d="M0 0 C4.29 0 8.58 0 13 0 C13 24.42 13 48.84 13 74 C51.61 74 90.22 74 130 74 C132.51831628 39.48114317 132.51831628 39.48114317 120.26953125 6.5859375 C119 5 119 5 118 2 C115.98491642 1.26676204 115.98491642 1.26676204 114 1 C114 0.67 114 0.34 114 0 C122.42358971 -0.64521113 129.37027544 0.55963571 136.265625 5.68359375 C144.19241381 12.50943967 146.18336197 15.73344787 149 27 C149 42.84 149 58.68 149 75 C99.83 75 50.66 75 0 75 C0 50.25 0 25.5 0 0 Z " fill="#756B76" transform="translate(336,83)"/>
<path d="M0 0 C1.19794189 -0.00315216 2.39588379 -0.00630432 3.63012695 -0.009552 C4.93425537 -0.00752777 6.23838379 -0.00550354 7.58203125 -0.00341797 C8.9234214 -0.00409107 10.26481144 -0.00506115 11.60620117 -0.00631714 C14.42074746 -0.00779382 17.23526207 -0.00564051 20.04980469 -0.00097656 C23.66493756 0.00472073 27.2799962 0.00144156 30.89512634 -0.00454903 C33.66598067 -0.00815544 36.43681727 -0.00701569 39.20767212 -0.00442123 C41.19142708 -0.0034258 43.17518272 -0.00647288 45.15893555 -0.009552 C46.35687744 -0.00639984 47.55481934 -0.00324768 48.7890625 0 C49.84971924 0.00079559 50.91037598 0.00159119 52.00317383 0.00241089 C54.39453125 0.12939453 54.39453125 0.12939453 55.39453125 1.12939453 C55.48303795 3.72273601 55.50986295 6.29002032 55.4921875 8.88330078 C55.49118042 9.57033081 55.49017334 10.25736084 55.48913574 10.96520996 C55.48388901 13.54078837 55.46992784 16.11634306 55.45703125 18.69189453 C55.43640625 24.44626953 55.41578125 30.20064453 55.39453125 36.12939453 C34.93453125 36.12939453 14.47453125 36.12939453 -6.60546875 36.12939453 C-6.62609375 30.37501953 -6.64671875 24.62064453 -6.66796875 18.69189453 C-6.67707275 16.87375244 -6.68617676 15.05561035 -6.69555664 13.18237305 C-6.69847586 11.74934971 -6.70102441 10.31632555 -6.703125 8.88330078 C-6.70824097 8.13270386 -6.71335693 7.38210693 -6.71862793 6.60876465 C-6.71893867 4.78191852 -6.66777988 2.95517771 -6.60546875 1.12939453 C-4.85028769 -0.62578653 -2.3819716 0.0017867 0 0 Z " fill="#F2D703" transform="translate(225.60546875,44.87060546875)"/>
<path d="M0 0 C5.61 0 11.22 0 17 0 C17 18.15 17 36.3 17 55 C16.67 55 16.34 55 16 55 C16 41.8 16 28.6 16 15 C11.38 15 6.76 15 2 15 C2 112.35 2 209.7 2 310 C6.62 310.33 11.24 310.66 16 311 C16 236.75 16 162.5 16 86 C16.33 86 16.66 86 17 86 C17 160.58 17 235.16 17 312 C11.39 312 5.78 312 0 312 C0 209.04 0 106.08 0 0 Z " fill="#2C87CC" transform="translate(439,173)"/>
<path d="M0 0 C5.61 0 11.22 0 17 0 C17 102.96 17 205.92 17 312 C11.39 312 5.78 312 0 312 C-0.00238835 310.82771441 -0.00477671 309.65542883 -0.00723743 308.44761944 C-0.06456362 280.63690415 -0.13727011 252.82626216 -0.22898628 225.01563836 C-0.24025481 221.59465446 -0.25139321 218.17367014 -0.26245117 214.75268555 C-0.26465486 214.07161231 -0.26685854 213.39053907 -0.269129 212.68882725 C-0.30452763 201.65250519 -0.32937725 190.6161832 -0.35034702 179.57982536 C-0.37208869 168.26042895 -0.40534708 156.94111745 -0.44870156 145.62177926 C-0.47269398 139.26179381 -0.49138325 132.9018903 -0.49761391 126.54186058 C-0.50363759 120.560762 -0.52353853 114.57987325 -0.55427551 108.59885216 C-0.56309949 106.39898635 -0.56676938 104.19909316 -0.56500816 101.99921036 C-0.56336714 99.00473624 -0.57995416 96.01091078 -0.60127258 93.01652527 C-0.59642501 92.13812758 -0.59157743 91.25972989 -0.58658296 90.3547141 C-0.48229308 85.95241138 -0.48229308 85.95241138 -2.52404755 82.254381 C-3.01111186 81.84043527 -3.49817617 81.42648954 -4 81 C-2.35 81 -0.7 81 1 81 C2.52505155 87.58629688 3.28831197 93.763552 3.24050903 100.51663208 C3.24221788 101.4194743 3.24392673 102.32231651 3.24568737 103.25251758 C3.24895576 106.24801821 3.23802262 109.24328988 3.22705078 112.23876953 C3.22648609 114.39785253 3.22680435 116.5569359 3.22793579 118.71601868 C3.22850806 124.55618327 3.21677415 130.39626519 3.20278788 136.23641062 C3.19025948 142.34761539 3.18910835 148.4588222 3.18673706 154.57003784 C3.18052849 166.13303635 3.16412609 177.6959969 3.14403808 189.25897872 C3.1216597 202.42703218 3.11068077 215.59508748 3.10064721 228.76315522 C3.07975933 255.8421245 3.04459545 282.92106012 3 310 C7.29 310.33 11.58 310.66 16 311 C16 213.32 16 115.64 16 15 C11.05 15 6.1 15 1 15 C1 27.87 1 40.74 1 54 C0.67 54 0.34 54 0 54 C0 36.18 0 18.36 0 0 Z " fill="#2C81C2" transform="translate(44,173)"/>
<path d="M0 0 C3.1799418 2.14860933 3.89098481 3.48465547 4.6875 7.25 C3.97469322 11.13803699 3.49533243 11.93792348 0.96020508 14.72290039 C0.32418365 15.4226297 -0.31183777 16.12235901 -0.96713257 16.84329224 C-4.27131027 20.34875727 -7.63964504 23.78230336 -11.05078125 27.18359375 C-12.16080757 28.29505516 -12.16080757 28.29505516 -13.29325867 29.42897034 C-14.8424716 30.97885859 -16.39292727 32.52750558 -17.94458008 34.07495117 C-20.32685505 36.45182249 -22.70368497 38.83404646 -25.08007812 41.21679688 C-26.5908249 42.72688365 -28.10188141 44.23666062 -29.61328125 45.74609375 C-30.68042107 46.81626991 -30.68042107 46.81626991 -31.76911926 47.9080658 C-32.42707993 48.5628743 -33.08504059 49.2176828 -33.76293945 49.89233398 C-34.34139114 50.46999008 -34.91984283 51.04764618 -35.51582336 51.64280701 C-37.91344164 53.83528912 -39.10132396 54.00921127 -42.4375 54.3125 C-46 54 -46 54 -47.9375 52.4375 C-49.40334319 49.07468326 -50.01206588 46.52862116 -49 43 C-46.34872914 39.33634403 -43.13223806 36.29599358 -39.8828125 33.1640625 C-38.95532196 32.24410492 -38.02783142 31.32414734 -37.07223511 30.37631226 C-34.61248743 27.93755741 -32.13201944 25.52096471 -29.64697266 23.10803223 C-27.61862293 21.13157884 -25.60530045 19.14019845 -23.59262276 17.14780617 C-19.43802619 13.03547507 -15.27176426 8.9349479 -11.08251953 4.85791016 C-10.34083527 4.13511871 -9.599151 3.41232727 -8.83499146 2.66763306 C-5.90453919 0.0044495 -3.92171397 -0.46687071 0 0 Z " fill="#030507" transform="translate(148,196)"/>
<path d="M0 0 C20.46 0 40.92 0 62 0 C62 5.28 62 10.56 62 16 C41.54 16 21.08 16 0 16 C0 10.72 0 5.44 0 0 Z " fill="#F3D803" transform="translate(219,96)"/>
<path d="M0 0 C85.8 0 171.6 0 260 0 C261.24497833 2.48995665 261.12934372 4.18994911 261.1328125 6.97265625 C261.13410156 7.95427734 261.13539063 8.93589844 261.13671875 9.94726562 C261.13285156 10.97529297 261.12898438 12.00332031 261.125 13.0625 C261.12886719 14.09439453 261.13273437 15.12628906 261.13671875 16.18945312 C261.13478516 17.65995117 261.13478516 17.65995117 261.1328125 19.16015625 C261.13168457 20.06386963 261.13055664 20.96758301 261.12939453 21.89868164 C261 24 261 24 260 25 C258.60821676 25.09649688 257.2115601 25.12371888 255.81643581 25.12304783 C254.90876192 25.12503888 254.00108802 25.12702993 253.06590885 25.12908131 C252.05717513 25.12616847 251.04844142 25.12325563 250.00914001 25.12025452 C248.94656198 25.12110894 247.88398394 25.12196337 246.78920656 25.12284368 C243.1992167 25.12450164 239.60927272 25.11897196 236.01928711 25.11352539 C233.45759584 25.11324356 230.89590448 25.11340117 228.33421326 25.1139679 C222.80391281 25.11419622 217.27362736 25.11134469 211.74333 25.10573006 C203.74736196 25.09761742 195.75139962 25.09500008 187.7554279 25.09374207 C174.78380743 25.09155117 161.81219324 25.08489008 148.84057617 25.07543945 C136.23673535 25.0662663 123.63289622 25.05918499 111.02905273 25.05493164 C110.25269661 25.05466892 109.47634048 25.05440619 108.67645841 25.05413551 C104.78187053 25.05283051 100.88728264 25.05156679 96.99269474 25.05032361 C64.66179193 25.03994983 32.33089683 25.02233051 0 25 C0 24.67 0 24.34 0 24 C81.18 24 162.36 24 246 24 C246 16.41 246 8.82 246 1 C164.82 1 83.64 1 0 1 C0 0.67 0 0.34 0 0 Z " fill="#B7B7B7" transform="translate(120,398)"/>
<path d="M0 0 C2.61819895 2.12728664 2.92766893 3.46654668 3.37744141 6.78369141 C2.88060989 11.01736433 0.8885051 12.97861894 -2.0390625 15.8359375 C-2.81677505 16.62226059 -2.81677505 16.62226059 -3.61019897 17.42446899 C-4.70753896 18.52588165 -5.81245194 19.61979447 -6.92431641 20.70654297 C-8.61991917 22.37001545 -10.28112858 24.06307022 -11.94140625 25.76171875 C-13.01370656 26.83005403 -14.08786672 27.89652647 -15.1640625 28.9609375 C-15.90506699 29.72016006 -15.90506699 29.72016006 -16.66104126 30.49472046 C-19.19051714 32.92453923 -20.70492599 33.95892168 -24.21630859 34.44775391 C-27 34 -27 34 -29.375 31.875 C-31.31240045 28.44729151 -31.48849382 26.88819529 -31 23 C-28.29125647 19.18816332 -24.94008041 15.99424286 -21.61279297 12.72070312 C-20.00767739 11.13259603 -18.44340075 9.51083227 -16.87890625 7.8828125 C-15.85903552 6.85971661 -14.83696673 5.8388062 -13.8125 4.8203125 C-12.89082031 3.89492676 -11.96914062 2.96954102 -11.01953125 2.01611328 C-6.93915312 -0.70831772 -4.82818597 -0.51703705 0 0 Z " fill="#020507" transform="translate(120,187)"/>
<path d="M0 0 C1.65 0 3.3 0 5 0 C6.52505155 6.58629688 7.28831197 12.763552 7.24050903 19.51663208 C7.24221788 20.4194743 7.24392673 21.32231651 7.24568737 22.25251758 C7.24895576 25.24801821 7.23802262 28.24328988 7.22705078 31.23876953 C7.22648609 33.39785253 7.22680435 35.5569359 7.22793579 37.71601868 C7.22850806 43.55618327 7.21677415 49.39626519 7.20278788 55.23641062 C7.19025948 61.34761539 7.18910835 67.4588222 7.18673706 73.57003784 C7.18052849 85.13303635 7.16412609 96.6959969 7.14403808 108.25897872 C7.1216597 121.42703218 7.11068077 134.59508748 7.10064721 147.76315522 C7.07975933 174.8421245 7.04459545 201.92106012 7 229 C11.29 229.33 15.58 229.66 20 230 C20 230.33 20 230.66 20 231 C14.72 231 9.44 231 4 231 C3.99761165 229.82771441 3.99522329 228.65542883 3.99276257 227.44761944 C3.93543638 199.63690415 3.86272989 171.82626216 3.77101372 144.01563836 C3.75974519 140.59465446 3.74860679 137.17367014 3.73754883 133.75268555 C3.73534514 133.07161231 3.73314146 132.39053907 3.730871 131.68882725 C3.69547237 120.65250519 3.67062275 109.6161832 3.64965298 98.57982536 C3.62791131 87.26042895 3.59465292 75.94111745 3.55129844 64.62177926 C3.52730602 58.26179381 3.50861675 51.9018903 3.50238609 45.54186058 C3.49636241 39.560762 3.47646147 33.57987325 3.44572449 27.59885216 C3.43690051 25.39898635 3.43323062 23.19909316 3.43499184 20.99921036 C3.43663286 18.00473624 3.42004584 15.01091078 3.39872742 12.01652527 C3.40357499 11.13812758 3.40842257 10.25972989 3.41341704 9.3547141 C3.51770692 4.95241138 3.51770692 4.95241138 1.47595245 1.254381 C0.98888814 0.84043527 0.50182383 0.42648954 0 0 Z " fill="#2A88CD" transform="translate(40,254)"/>
<path d="M0 0 C7.75 -0.125 7.75 -0.125 10 1 C11.64145357 1.09870651 13.28689516 1.133865 14.93130684 1.1386652 C16.50480799 1.14687687 16.50480799 1.14687687 18.11009705 1.15525442 C19.27155586 1.15623253 20.43301466 1.15721064 21.62966919 1.15821838 C23.46983103 1.16562535 23.46983103 1.16562535 25.34716785 1.17318195 C28.7631302 1.18592616 32.17905147 1.19419133 35.59502816 1.20060861 C39.2746576 1.20859747 42.95426616 1.22230044 46.63388062 1.23532104 C53.01265944 1.25710533 59.39144034 1.27524266 65.77023697 1.29092598 C74.99298615 1.31360686 84.21571224 1.34175214 93.43844186 1.37124526 C108.40052006 1.41894305 123.3626077 1.46220129 138.32470703 1.50268555 C152.86182388 1.54202936 167.39893233 1.5834529 181.93603516 1.62768555 C183.279395 1.63177196 183.279395 1.63177196 184.64989342 1.63594092 C189.14257363 1.64962021 193.63525372 1.66334052 198.12793374 1.67708123 C235.41860509 1.79108036 272.70929432 1.8978821 310 2 C310 2.33 310 2.66 310 3 C271.57809498 3.17319575 233.15615921 3.33585417 194.73415036 3.48431293 C190.20159148 3.50183534 185.66903294 3.51944531 181.13647461 3.53710938 C180.23409588 3.54062461 179.33171715 3.54413985 178.40199361 3.5477616 C163.77671051 3.60494366 149.15146674 3.66922359 134.52622517 3.736111 C119.52758168 3.80454873 104.52892135 3.86539509 89.53021795 3.91914403 C80.26974636 3.9525704 71.00933928 3.99196992 61.74892626 4.03892837 C55.40504426 4.07053112 49.06116115 4.0947828 42.71722718 4.11317255 C39.05310076 4.12401372 35.38906366 4.13817358 31.72499084 4.16103554 C27.75861748 4.18569933 23.79229622 4.19492326 19.82585144 4.20254517 C18.07635965 4.21712011 18.07635965 4.21712011 16.29152459 4.2319895 C15.23356598 4.2314908 14.17560737 4.2309921 13.08558941 4.23047829 C12.16932425 4.23427549 11.2530591 4.23807269 10.30902833 4.24198496 C8 4 8 4 5 2 C3.34450469 1.61500109 1.6777567 1.27206865 0 1 C0 0.67 0 0.34 0 0 Z " fill="#73DCF7" transform="translate(113,185)"/>
<path d="M0 0 C5.28 0 10.56 0 16 0 C16 18.15 16 36.3 16 55 C15.67 55 15.34 55 15 55 C15 41.8 15 28.6 15 15 C10.05 15 5.1 15 0 15 C0 10.05 0 5.1 0 0 Z " fill="#117CE5" transform="translate(440,173)"/>
<path d="M0 0 C5.28 0 10.56 0 16 0 C16 4.95 16 9.9 16 15 C11.05 15 6.1 15 1 15 C1 27.87 1 40.74 1 54 C0.67 54 0.34 54 0 54 C0 36.18 0 18.36 0 0 Z " fill="#107CE5" transform="translate(44,173)"/>
<path d="M0 0 C1.06416641 -0.00563965 2.12833282 -0.0112793 3.2247467 -0.01708984 C4.38182129 -0.01304138 5.53889587 -0.00899292 6.73103333 -0.00482178 C7.95750076 -0.00832642 9.1839682 -0.01183105 10.44760132 -0.01544189 C13.80279145 -0.02272753 17.15773441 -0.0210326 20.5129106 -0.01468372 C24.02469317 -0.00961446 27.5364653 -0.01431744 31.04824829 -0.01745605 C36.94187819 -0.02109156 42.83545792 -0.01630602 48.7290802 -0.0067749 C55.54733641 0.00412402 62.36547314 0.00057203 69.18372649 -0.01042771 C75.03774833 -0.0194944 80.89173415 -0.02078937 86.74576074 -0.01555037 C90.24233321 -0.0124292 93.73884944 -0.01202565 97.23541832 -0.01862335 C101.12853546 -0.02545682 105.02151788 -0.01599425 108.91462708 -0.00482178 C110.07777435 -0.00887024 111.24092163 -0.0129187 112.4393158 -0.01708984 C113.49502274 -0.0114502 114.55072968 -0.00581055 115.63842773 0 C116.55925738 0.00075405 117.48008703 0.0015081 118.42882061 0.002285 C120.6287384 0.25396729 120.6287384 0.25396729 122.6287384 2.25396729 C121.97182605 2.25819922 121.31491369 2.26243116 120.6380949 2.26679134 C104.66428554 2.37003311 88.69052331 2.47866113 72.71679211 2.59330654 C64.99206241 2.64861756 57.26732809 2.70209608 49.54255676 2.75128174 C42.81074995 2.79414955 36.07897685 2.84043412 29.34722215 2.89084584 C25.78182781 2.91742584 22.21644006 2.9422784 18.6510067 2.96304131 C14.67373064 2.98626649 10.69653394 3.01711886 6.71931458 3.04864502 C5.53320587 3.05440048 4.34709717 3.06015594 3.12504578 3.06608582 C2.04391006 3.07587463 0.96277435 3.08566345 -0.15112305 3.0957489 C-1.09227368 3.10220145 -2.03342432 3.108654 -3.00309467 3.11530209 C-5.52232528 3.15974795 -5.52232528 3.15974795 -8.3712616 4.25396729 C-8.3712616 4.91396729 -8.3712616 5.57396729 -8.3712616 6.25396729 C-9.6912616 6.58396729 -11.0112616 6.91396729 -12.3712616 7.25396729 C-11.6837616 4.87896729 -11.6837616 4.87896729 -10.3712616 2.25396729 C-6.84469338 0.45139445 -3.92887878 0.00321334 0 0 Z " fill="#EAD424" transform="translate(192.3712615966797,14.74603271484375)"/>
<path d="M0 0 C1.19794189 -0.00315216 2.39588379 -0.00630432 3.63012695 -0.009552 C4.93425537 -0.00752777 6.23838379 -0.00550354 7.58203125 -0.00341797 C8.9234214 -0.00409107 10.26481144 -0.00506115 11.60620117 -0.00631714 C14.42074746 -0.00779382 17.23526207 -0.00564051 20.04980469 -0.00097656 C23.66493756 0.00472073 27.2799962 0.00144156 30.89512634 -0.00454903 C33.66598067 -0.00815544 36.43681727 -0.00701569 39.20767212 -0.00442123 C41.19142708 -0.0034258 43.17518272 -0.00647288 45.15893555 -0.009552 C46.35687744 -0.00639984 47.55481934 -0.00324768 48.7890625 0 C49.84971924 0.00079559 50.91037598 0.00159119 52.00317383 0.00241089 C54.39453125 0.12939453 54.39453125 0.12939453 55.39453125 1.12939453 C55.48303795 3.72273601 55.50986295 6.29002032 55.4921875 8.88330078 C55.49118042 9.57033081 55.49017334 10.25736084 55.48913574 10.96520996 C55.48388901 13.54078837 55.46992784 16.11634306 55.45703125 18.69189453 C55.43640625 24.44626953 55.41578125 30.20064453 55.39453125 36.12939453 C34.93453125 36.12939453 14.47453125 36.12939453 -6.60546875 36.12939453 C-6.62609375 30.37501953 -6.64671875 24.62064453 -6.66796875 18.69189453 C-6.67707275 16.87375244 -6.68617676 15.05561035 -6.69555664 13.18237305 C-6.69847586 11.74934971 -6.70102441 10.31632555 -6.703125 8.88330078 C-6.70824097 8.13270386 -6.71335693 7.38210693 -6.71862793 6.60876465 C-6.71893867 4.78191852 -6.66777988 2.95517771 -6.60546875 1.12939453 C-4.85028769 -0.62578653 -2.3819716 0.0017867 0 0 Z M-4.60546875 2.12939453 C-6.092266 5.10298902 -5.7165948 7.79238632 -5.703125 11.10595703 C-5.70062744 12.35973145 -5.69812988 13.61350586 -5.69555664 14.90527344 C-5.68645264 16.5054834 -5.67734863 18.10569336 -5.66796875 19.75439453 C-5.64734375 24.82814453 -5.62671875 29.90189453 -5.60546875 35.12939453 C14.19453125 35.12939453 33.99453125 35.12939453 54.39453125 35.12939453 C54.39453125 24.23939453 54.39453125 13.34939453 54.39453125 2.12939453 C34.92453125 2.12939453 15.45453125 2.12939453 -4.60546875 2.12939453 Z " fill="#CAB92C" transform="translate(225.60546875,44.87060546875)"/>
<path d="M0 0 C0.66 0.33 1.32 0.66 2 1 C1.51322375 1.47390293 1.02644751 1.94780586 0.52492046 2.43606949 C-1.73328406 6.23290979 -1.42309683 9.68038918 -1.39872742 14.02288818 C-1.40537424 14.94510516 -1.41202107 15.86732214 -1.41886932 16.81748509 C-1.43755496 19.91456768 -1.43489026 23.01126583 -1.43237305 26.10839844 C-1.44138679 28.3257146 -1.45171305 30.54302576 -1.46325684 32.7603302 C-1.49089833 38.7867737 -1.50012108 44.81312285 -1.50611091 50.83962154 C-1.51547597 57.13508297 -1.54167781 63.4304734 -1.56611633 69.72589111 C-1.60486598 80.2946249 -1.6331975 90.86334707 -1.65356445 101.43212891 C-1.67457077 112.31789886 -1.7018428 123.20362338 -1.73754883 134.08935547 C-1.73974765 134.76037858 -1.74194648 135.43140169 -1.74421193 136.12275884 C-1.7552815 139.48909268 -1.76647432 142.85542609 -1.77772844 146.22175932 C-1.87065373 174.14780096 -1.94229836 202.07386494 -2 230 C-2.33 230 -2.66 230 -3 230 C-3.06839778 201.13262538 -3.12150833 172.26526029 -3.15319599 143.39782063 C-3.15694823 139.9918575 -3.16083119 136.58589453 -3.16479492 133.17993164 C-3.16597532 132.16280771 -3.16597532 132.16280771 -3.16717956 131.12513582 C-3.18024316 120.13727586 -3.20390222 109.14946285 -3.23145839 98.16163077 C-3.25948611 86.89200698 -3.27594603 75.62240669 -3.28226548 64.35274631 C-3.28618493 58.0206722 -3.29543052 51.68870469 -3.31719017 45.35666466 C-3.33748841 39.4018868 -3.34384732 33.44725988 -3.33932304 27.49245071 C-3.34015124 25.30223713 -3.34615634 23.11201871 -3.35761642 20.92183495 C-3.37245621 17.94055576 -3.36898477 14.95985284 -3.36076355 11.9785614 C-3.36950207 11.10405466 -3.3782406 10.22954792 -3.38724393 9.32854098 C-3.34274028 3.39260101 -3.34274028 3.39260101 -1.47692853 1.25535709 C-0.98954212 0.84108925 -0.5021557 0.42682141 0 0 Z " fill="#000C21" transform="translate(459,254)"/>
<path d="M0 0 C20.46 0 40.92 0 62 0 C62 5.28 62 10.56 62 16 C41.54 16 21.08 16 0 16 C0 10.72 0 5.44 0 0 Z M1 1 C1 5.62 1 10.24 1 15 C8.17160785 15.07418511 15.34299207 15.12861949 22.51489258 15.16479492 C24.95438528 15.17987654 27.3938509 15.20034469 29.83325195 15.22631836 C33.34072559 15.26272812 36.84784054 15.27973289 40.35546875 15.29296875 C41.99010323 15.31619453 41.99010323 15.31619453 43.65776062 15.33988953 C50.8427133 15.43118919 50.8427133 15.43118919 57 12 C58.41577477 10.81575674 58.41577477 10.81575674 58.0625 7.4375 C58.041875 6.303125 58.02125 5.16875 58 4 C58.66 4 59.32 4 60 4 C60 3.01 60 2.02 60 1 C40.53 1 21.06 1 1 1 Z " fill="#E7D129" transform="translate(219,96)"/>
<path d="M0 0 C3.96 0 7.92 0 12 0 C13.31886422 3.95659266 13.26518132 6.82339427 13 11 C8.72153168 13.85231222 5.104369 13.60225696 0 14 C0 9.38 0 4.76 0 0 Z " fill="#E2CD11" transform="translate(220,97)"/>
<path d="M0 0 C12.54 0 25.08 0 38 0 C38 2.97 38 5.94 38 9 C37.34 9 36.68 9 36 9 C36 6.69 36 4.38 36 2 C24.78 2 13.56 2 2 2 C2 4.97 2 7.94 2 11 C1.01 11.33 0.02 11.66 -1 12 C-0.67 8.04 -0.34 4.08 0 0 Z " fill="#DBC826" transform="translate(231,127)"/>
<path d="M0 0 C0.33 0 0.66 0 1 0 C1.11591144 7.4929782 1.20472371 14.98586332 1.25906086 22.47953415 C1.28514222 25.95933474 1.32051044 29.43852147 1.37719727 32.91796875 C1.44197819 36.91933033 1.46619212 40.92004839 1.48828125 44.921875 C1.51408768 46.16990906 1.5398941 47.41794312 1.56648254 48.70379639 C1.5668602 49.86469788 1.56723785 51.02559937 1.56762695 52.22167969 C1.57873001 53.24316101 1.58983307 54.26464233 1.60127258 55.31707764 C1 58 1 58 -1.33625793 60.33770752 C-4.52575534 62.32809451 -6.30401023 62.49279864 -10 62 C-10.66 61.34 -11.32 60.68 -12 60 C-10.906875 60.020625 -9.81375 60.04125 -8.6875 60.0625 C-5.05615809 60.18544452 -5.05615809 60.18544452 -2 59 C-0.79023553 55.91839075 -0.84733305 52.77674438 -0.79467773 49.49707031 C-0.77473251 48.39623108 -0.75478729 47.29539185 -0.73423767 46.16119385 C-0.70916893 44.38757477 -0.70916893 44.38757477 -0.68359375 42.578125 C-0.6524221 40.75544098 -0.6524221 40.75544098 -0.62062073 38.89593506 C-0.55523172 35.01401427 -0.49628949 31.1320258 -0.4375 27.25 C-0.39430468 24.61848258 -0.35069006 21.98697201 -0.30664062 19.35546875 C-0.19956117 12.9037174 -0.09777486 6.45189871 0 0 Z " fill="#081429" transform="translate(43,172)"/>
<path d="M0 0 C2.5 0.25 2.5 0.25 4.5 2.25 C4.75 5.25 4.75 5.25 4.5 8.25 C2.5 10.25 2.5 10.25 0 10.5 C-2.5 10.25 -2.5 10.25 -4.5 8.25 C-4.75 5.25 -4.75 5.25 -4.5 2.25 C-2.5 0.25 -2.5 0.25 0 0 Z " fill="#2E2000" transform="translate(227.5,98.75)"/>
<path d="M0 0 C2.5 0.25 2.5 0.25 4.5 2.25 C4.75 5.25 4.75 5.25 4.5 8.25 C2.5 10.25 2.5 10.25 0 10.5 C-2.5 10.25 -2.5 10.25 -4.5 8.25 C-4.75 5.25 -4.75 5.25 -4.5 2.25 C-2.5 0.25 -2.5 0.25 0 0 Z " fill="#211900" transform="translate(272.5,98.75)"/>
<path d="M0 0 C0.495 1.98 0.495 1.98 1 4 C-18.8 4 -38.6 4 -59 4 C-59 3.67 -59 3.34 -59 3 C-58.37439178 2.99191315 -57.74878357 2.98382629 -57.10421753 2.97549438 C-50.58262076 2.88932087 -44.06132347 2.78981157 -37.54003906 2.68261719 C-35.10747311 2.64437541 -32.67485153 2.60951421 -30.2421875 2.578125 C-26.74198553 2.53237073 -23.24216488 2.47439233 -19.7421875 2.4140625 C-18.65759247 2.40251129 -17.57299744 2.39096008 -16.45553589 2.37905884 C-10.78891578 2.26873803 -5.35631791 0 0 0 Z " fill="#ECD522" transform="translate(279,108)"/>
<path d="M0 0 C0.99 0.33 1.98 0.66 3 1 C2.67854004 1.94689697 2.35708008 2.89379395 2.02587891 3.86938477 C0.68455785 8.58736147 0.64823628 13.21193597 0.5859375 18.08984375 C0.56657135 19.03436905 0.5472052 19.97889435 0.5272522 20.95204163 C0.46782308 23.94710467 0.42121846 26.94220691 0.375 29.9375 C0.33678644 31.97722962 0.29773277 34.01694369 0.2578125 36.05664062 C0.1621519 41.03763299 0.07798635 46.01870083 0 51 C-0.33 51 -0.66 51 -1 51 C-1.19370307 44.38006823 -1.37108553 37.75984357 -1.53710938 31.13916016 C-1.59552002 28.88678076 -1.65767101 26.63449513 -1.72363281 24.38232422 C-1.81777932 21.14568148 -1.89848408 17.90894027 -1.9765625 14.671875 C-2.00875885 13.66445251 -2.0409552 12.65703003 -2.0741272 11.61907959 C-2.09429901 10.67840637 -2.11447083 9.73773315 -2.13525391 8.76855469 C-2.15746002 7.94248718 -2.17966614 7.11641968 -2.20254517 6.26531982 C-1.97830485 3.75735563 -1.25881474 2.16072445 0 0 Z " fill="#A0DDEA" transform="translate(124,289)"/>
<path d="M0 0 C0.33 0 0.66 0 1 0 C1.10149262 6.74425389 1.17150433 13.48831055 1.21972656 20.2331543 C1.23983106 22.52717448 1.26711891 24.82114348 1.30175781 27.11499023 C1.35032559 30.41402826 1.37298077 33.71238822 1.390625 37.01171875 C1.41127014 38.03585373 1.43191528 39.05998871 1.45318604 40.11515808 C1.45544041 47.28306034 1.45544041 47.28306034 -1.02441406 51.18676758 C-1.67635742 51.78513428 -2.32830078 52.38350098 -3 53 C-4.32 52.67 -5.64 52.34 -7 52 C-3.25 49 -3.25 49 -1 49 C-0.67 32.83 -0.34 16.66 0 0 Z " fill="#302700" transform="translate(295,74)"/>
<path d="M0 0 C0.33 0.99 0.66 1.98 1 3 C0.319375 3.495 -0.36125 3.99 -1.0625 4.5 C-3.47172138 6.55040117 -5.34460168 8.48252162 -7.375 10.875 C-10.62755493 14.69228425 -14.11784351 17.83089266 -18 21 C-18.66 20.67 -19.32 20.34 -20 20 C-13.4 13.4 -6.8 6.8 0 0 Z " fill="#12242B" transform="translate(124,214)"/>
<path d="M0 0 C2.31 0.66 4.62 1.32 7 2 C6.8590651 4.43787385 6.71245458 6.87517853 6.5625 9.3125 C6.50352539 10.34793945 6.50352539 10.34793945 6.44335938 11.40429688 C6.25072585 14.47161535 5.97677283 17.06968152 5 20 C6.32 20.66 7.64 21.32 9 22 C7.02 22 5.04 22 3 22 C2.34 20.02 1.68 18.04 1 16 C2.32 15.67 3.64 15.34 5 15 C4.93999894 13.3739713 4.8512115 11.74898451 4.75 10.125 C4.70359375 9.22007812 4.6571875 8.31515625 4.609375 7.3828125 C4.24388852 4.82889456 4.24388852 4.82889456 1.953125 3.6796875 C1.30859375 3.45539063 0.6640625 3.23109375 0 3 C0 2.01 0 1.02 0 0 Z " fill="#4391D2" transform="translate(458,232)"/>
<path d="M0 0 C0.70744354 0.00141495 1.41488708 0.0028299 2.14376831 0.00428772 C4.40578419 0.00989025 6.66770148 0.02244307 8.9296875 0.03515625 C10.46223815 0.04017093 11.99479036 0.04473389 13.52734375 0.04882812 C17.28649638 0.05986048 21.04557522 0.07712673 24.8046875 0.09765625 C24.8046875 0.42765625 24.8046875 0.75765625 24.8046875 1.09765625 C23.94190186 1.1227124 23.07911621 1.14776855 22.19018555 1.17358398 C18.98644981 1.2687701 15.78287213 1.36800069 12.5793457 1.4699707 C11.19332767 1.51325843 9.80725844 1.55493789 8.42114258 1.5949707 C6.42776952 1.65282209 4.43458185 1.71695401 2.44140625 1.78125 C1.24217529 1.81790771 0.04294434 1.85456543 -1.19262695 1.89233398 C-4.24525599 1.9749865 -4.24525599 1.9749865 -7.1953125 3.09765625 C-7.1953125 3.75765625 -7.1953125 4.41765625 -7.1953125 5.09765625 C-8.5153125 5.42765625 -9.8353125 5.75765625 -11.1953125 6.09765625 C-8.86841615 -0.38441214 -6.43418655 -0.04815375 0 0 Z " fill="#EDD713" transform="translate(191.1953125,15.90234375)"/>
<path d="M0 0 C0.33 0 0.66 0 1 0 C1 5.28 1 10.56 1 16 C0.34 15.67 -0.32 15.34 -1 15 C-1 14.01 -1 13.02 -1 12 C-2.32 12.33 -3.64 12.66 -5 13 C-4.34 10.03 -3.68 7.06 -3 4 C-2.34 4 -1.68 4 -1 4 C-0.67 2.68 -0.34 1.36 0 0 Z " fill="#D6C420" transform="translate(280,96)"/>
<path d="M0 0 C0 3 0 3 -1.17749023 4.40698242 C-1.71575439 4.88498291 -2.25401855 5.3629834 -2.80859375 5.85546875 C-3.39060547 6.39623047 -3.97261719 6.93699219 -4.57226562 7.49414062 C-5.80392486 8.61230665 -7.04341949 9.7219095 -8.29101562 10.82226562 C-11.53577225 13.86624173 -13.34692288 15.91693423 -13.91015625 20.42578125 C-13.95462891 22.19501953 -13.95462891 22.19501953 -14 24 C-16 22 -16 22 -16.625 19.3984375 C-15.63287034 14.0037325 -11.90465845 11.27242588 -8 7.625 C-7.236875 6.88894531 -6.47375 6.15289062 -5.6875 5.39453125 C-3.80445613 3.58210152 -1.90888041 1.78513318 0 0 Z " fill="#07151D" transform="translate(105,194)"/>
<path d="M0 0 C-1.34603045 3.03867819 -2.80424173 5.00385612 -5.2578125 7.234375 C-6.19560547 8.09482422 -6.19560547 8.09482422 -7.15234375 8.97265625 C-7.80332031 9.55917969 -8.45429688 10.14570313 -9.125 10.75 C-9.78371094 11.35199219 -10.44242188 11.95398438 -11.12109375 12.57421875 C-12.74268509 14.05480215 -14.36902454 15.52977125 -16 17 C-16.66 16.67 -17.32 16.34 -18 16 C-15.38308836 13.32529045 -12.75518292 10.66165519 -10.125 8 C-9.00544922 6.8553125 -9.00544922 6.8553125 -7.86328125 5.6875 C-7.14785156 4.965625 -6.43242187 4.24375 -5.6953125 3.5 C-5.03547363 2.8296875 -4.37563477 2.159375 -3.69580078 1.46875 C-2 0 -2 0 0 0 Z " fill="#12242B" transform="translate(143,197)"/>
<path d="M0 0 C1.32 0.33 2.64 0.66 4 1 C3.83886719 1.56976563 3.67773438 2.13953125 3.51171875 2.7265625 C2.17010585 8.68701063 2.68365326 14.35390482 5 20 C2.69 20 0.38 20 -2 20 C-1.51015625 19.66097656 -1.0203125 19.32195312 -0.515625 18.97265625 C1.75734448 16.01428102 1.35803839 13.0061431 1.25 9.4375 C1.24484375 8.75236328 1.2396875 8.06722656 1.234375 7.36132812 C1.21372122 3.55308514 1.21372122 3.55308514 0 0 Z " fill="#499BD6" transform="translate(35,234)"/>
<path d="M0 0 C0.33 0.66 0.66 1.32 1 2 C-1.5389269 6.1375105 -3.87715631 9.35715148 -8 12 C-8.99 11.67 -9.98 11.34 -11 11 C-7.37 7.37 -3.74 3.74 0 0 Z " fill="#83BCC7" transform="translate(117,202)"/>
<path d="M0 0 C4.875 1.875 4.875 1.875 6 3 C6.07179964 4.51928038 6.08392007 6.04167482 6.0625 7.5625 C6.05347656 8.38878906 6.04445313 9.21507813 6.03515625 10.06640625 C6.01775391 11.02353516 6.01775391 11.02353516 6 12 C6.66 12.33 7.32 12.66 8 13 C7.67 13.99 7.34 14.98 7 16 C6.34 16 5.68 16 5 16 C5 15.34 5 14.68 5 14 C3.68 13.67 2.36 13.34 1 13 C1.66 13 2.32 13 3 13 C3.165 11.72125 3.33 10.4425 3.5 9.125 C3.5928125 8.40570313 3.685625 7.68640625 3.78125 6.9453125 C4.0372485 4.99501656 4.0372485 4.99501656 4 3 C2.68 2.34 1.36 1.68 0 1 C0 0.67 0 0.34 0 0 Z " fill="#D8C415" transform="translate(303,59)"/>
<path d="M0 0 C0.33 0 0.66 0 1 0 C1.12117187 0.67546875 1.24234375 1.3509375 1.3671875 2.046875 C1.53476563 2.93890625 1.70234375 3.8309375 1.875 4.75 C2.03742188 5.63171875 2.19984375 6.5134375 2.3671875 7.421875 C2.96796264 9.86947744 3.77997117 11.80599857 5 14 C9.60742865 12.78955868 9.60742865 12.78955868 14 11 C13.34 12.32 12.68 13.64 12 15 C4.8 15.6 4.8 15.6 1.5 13.125 C-0.61183532 8.72534308 -0.33528878 4.79649232 0 0 Z " fill="#4C4002" transform="translate(216,127)"/>
<path d="M0 0 C0.33 0.66 0.66 1.32 1 2 C0.01 2.99 -0.98 3.98 -2 5 C-1.34 7.31 -0.68 9.62 0 12 C-1.65 12.33 -3.3 12.66 -5 13 C-4.64989059 4.80743982 -4.64989059 4.80743982 -1.9375 1.4375 C-1.298125 0.963125 -0.65875 0.48875 0 0 Z " fill="#2E98E3" transform="translate(42,231)"/>
<path d="M0 0 C1.32 0 2.64 0 4 0 C4.03738281 0.67546875 4.07476562 1.3509375 4.11328125 2.046875 C4.17902344 2.93890625 4.24476563 3.8309375 4.3125 4.75 C4.37050781 5.63171875 4.42851562 6.5134375 4.48828125 7.421875 C5.07629518 10.38438793 5.91319475 11.83444739 8 14 C11.10197397 14.80946422 11.10197397 14.80946422 14 15 C14 15.33 14 15.66 14 16 C6.56852792 16.36548223 6.56852792 16.36548223 4.25 14.875 C2.43967526 12.1595129 2.70847138 10.03738715 2.8125 6.8125 C2.83957031 5.72582031 2.86664063 4.63914063 2.89453125 3.51953125 C2.92933594 2.68808594 2.96414062 1.85664063 3 1 C2.01 0.67 1.02 0.34 0 0 Z " fill="#D1C01E" transform="translate(212,127)"/>
<path d="M0 0 C1.67542976 0.28604898 3.34385343 0.61781233 5 1 C5 2.65 5 4.3 5 6 C3.02 6 1.04 6 -1 6 C-1.042721 4.33388095 -1.04063832 2.66617115 -1 1 C-0.67 0.67 -0.34 0.34 0 0 Z " fill="#040300" transform="translate(226,101)"/>
<path d="M0 0 C0.66 0.33 1.32 0.66 2 1 C0.21427748 2.83947337 -1.57802449 4.67157741 -3.375 6.5 C-3.88289062 7.02464844 -4.39078125 7.54929687 -4.9140625 8.08984375 C-6.23832604 9.43153181 -7.61605865 10.71995815 -9 12 C-9.66 12 -10.32 12 -11 12 C-9.49650623 8.33213607 -7.36271208 6.31089607 -4.375 3.75 C-3.14910156 2.69039063 -3.14910156 2.69039063 -1.8984375 1.609375 C-1.27195312 1.07828125 -0.64546875 0.5471875 0 0 Z " fill="#555555" transform="translate(19,76)"/>
<path d="M0 0 C0.91007812 0.00902344 1.82015625 0.01804687 2.7578125 0.02734375 C3.45648438 0.03894531 4.15515625 0.05054687 4.875 0.0625 C4.875 1.0525 4.875 2.0425 4.875 3.0625 C3.885 3.3925 2.895 3.7225 1.875 4.0625 C1.545 3.7325 1.215 3.4025 0.875 3.0625 C-2.75694641 2.87100919 -2.75694641 2.87100919 -6.125 4.0625 C-6.455 3.0725 -6.785 2.0825 -7.125 1.0625 C-4.60024538 -0.19987731 -2.81299534 -0.03606404 0 0 Z " fill="#E2CC0D" transform="translate(274.125,96.9375)"/>
<path d="M0 0 C-0.125 1.8125 -0.125 1.8125 -1 4 C-2.97416268 5.05008653 -4.97582866 6.04987876 -7 7 C-7.99 8.485 -7.99 8.485 -9 10 C-9 9.34 -9 8.68 -9 8 C-9.66 7.67 -10.32 7.34 -11 7 C-9.73742767 5.82439821 -8.46462916 4.65977135 -7.1875 3.5 C-6.12595703 2.52546875 -6.12595703 2.52546875 -5.04296875 1.53125 C-3 0 -3 0 0 0 Z " fill="#94D0DD" transform="translate(120,242)"/>
<path d="M0 0 C1.65 0 3.3 0 5 0 C7.48063781 10.37357631 7.48063781 10.37357631 6 16 C5.67 16 5.34 16 5 16 C4.89042969 15.09636719 4.78085937 14.19273437 4.66796875 13.26171875 C4.50941406 12.08222656 4.35085937 10.90273438 4.1875 9.6875 C3.96126953 7.92986328 3.96126953 7.92986328 3.73046875 6.13671875 C3.00135005 3.00579726 2.50828536 1.90354807 0 0 Z " fill="#3197DE" transform="translate(40,254)"/>
<path d="M0 0 C1.24546405 2.49092811 0.7767578 3.41080733 0 6 C0.66 6 1.32 6 2 6 C2.33 7.65 2.66 9.3 3 11 C3.99 11.33 4.98 11.66 6 12 C3.625 11.6875 3.625 11.6875 1 11 C-1.43769218 7.34346173 -1.23944439 5.30999899 -1 1 C-0.67 0.67 -0.34 0.34 0 0 Z " fill="#0F232A" transform="translate(100,238)"/>
<path d="M0 0 C0.33 0 0.66 0 1 0 C1.2475 0.94875 1.495 1.8975 1.75 2.875 C2.6857077 6.08693191 2.6857077 6.08693191 5.125 7.375 C5.74375 7.58125 6.3625 7.7875 7 8 C4.36 8.33 1.72 8.66 -1 9 C-0.67 6.03 -0.34 3.06 0 0 Z " fill="#DAC50C" transform="translate(267,102)"/>
<path d="M0 0 C0 1.65 0 3.3 0 5 C1.32 5.66 2.64 6.32 4 7 C2.02 7 0.04 7 -2 7 C-2.66 5.02 -3.32 3.04 -4 1 C-2 0 -2 0 0 0 Z " fill="#4F9AD2" transform="translate(463,247)"/>
<path d="M0 0 C0 0.33 0 0.66 0 1 C-1.093125 1.28875 -2.18625 1.5775 -3.3125 1.875 C-7.04013845 2.81893204 -7.04013845 2.81893204 -10 5 C-10.33 4.01 -10.66 3.02 -11 2 C-8.74490247 -2.51019507 -4.15738698 -0.70597137 0 0 Z " fill="#68B3C9" transform="translate(118,186)"/>
<path d="M0 0 C2.64 0.33 5.28 0.66 8 1 C8 1.99 8 2.98 8 4 C8.66 4.33 9.32 4.66 10 5 C9.01 5 8.02 5 7 5 C6.34 4.34 5.68 3.68 5 3 C1.91652174 2.83318891 1.91652174 2.83318891 -1 3 C-0.67 2.01 -0.34 1.02 0 0 Z " fill="#91C9D6" transform="translate(143,194)"/>
<path d="M0 0 C0.99 0 1.98 0 3 0 C4.0326802 2.78823655 4.04509293 3.8677274 3.0625 6.75 C2.711875 7.4925 2.36125 8.235 2 9 C1.34 8.67 0.68 8.34 0 8 C0 5.36 0 2.72 0 0 Z " fill="#9AD5E2" transform="translate(122,189)"/>
<path d="M0 0 C2.375 -0.125 2.375 -0.125 5 0 C7 2 7 2 7.125 5.125 C7.08375 6.07375 7.0425 7.0225 7 8 C6.67 8 6.34 8 6 8 C6 6.35 6 4.7 6 3 C3.69 2.67 1.38 2.34 -1 2 C-0.67 1.34 -0.34 0.68 0 0 Z " fill="#3F3101" transform="translate(225,99)"/>
<path d="M0 0 C0.99 0.33 1.98 0.66 3 1 C2.67 1.66 2.34 2.32 2 3 C1.34 3 0.68 3 0 3 C0 3.66 0 4.32 0 5 C-1.32 5.33 -2.64 5.66 -4 6 C-2.25 1.125 -2.25 1.125 0 0 Z " fill="#D0BC16" transform="translate(184,16)"/>
<path d="M0 0 C0.99 0.33 1.98 0.66 3 1 C-0.465 3.97 -0.465 3.97 -4 7 C-4 5.68 -4 4.36 -4 3 C-2.1875 1.1875 -2.1875 1.1875 0 0 Z " fill="#0C1C23" transform="translate(115,241)"/>
<path d="M0 0 C0.33 0 0.66 0 1 0 C1.66 2.31 2.32 4.62 3 7 C4.65 7.33 6.3 7.66 8 8 C8 8.33 8 8.66 8 9 C5.69 9.33 3.38 9.66 1 10 C-0.1577506 6.52674819 -0.06866652 3.63932552 0 0 Z " fill="#C4B113" transform="translate(222,101)"/>
<path d="M0 0 C0.33 0.99 0.66 1.98 1 3 C-0.8125 5.6875 -0.8125 5.6875 -3 8 C-3.66 8 -4.32 8 -5 8 C-3.8141763 4.62496331 -2.72426311 2.35277269 0 0 Z " fill="#393637" transform="translate(110,387)"/>
<path d="M0 0 C0.66 0 1.32 0 2 0 C2.66 1.98 3.32 3.96 4 6 C1.69 6 -0.62 6 -3 6 C-2.505 5.566875 -2.01 5.13375 -1.5 4.6875 C0.33218192 3.00259517 0.33218192 3.00259517 0 0 Z " fill="#5E97C2" transform="translate(36,248)"/>
<path d="M0 0 C0.99 0.33 1.98 0.66 3 1 C1.35 2.32 -0.3 3.64 -2 5 C-1.125 1.125 -1.125 1.125 0 0 Z M-3 5 C-2 9 -2 9 -2 9 Z " fill="#081419" transform="translate(103,235)"/>
<path d="M0 0 C0.625 1.875 0.625 1.875 1 4 C0.34 4.66 -0.32 5.32 -1 6 C-3.125 5.625 -3.125 5.625 -5 5 C-3.35 3.35 -1.7 1.7 0 0 Z " fill="#80B9C5" transform="translate(105,214)"/>
<path d="M0 0 C0.99 0.33 1.98 0.66 3 1 C3 1.66 3 2.32 3 3 C3.66 3.33 4.32 3.66 5 4 C4.01 4.66 3.02 5.32 2 6 C2 5.34 2 4.68 2 4 C1.01 3.67 0.02 3.34 -1 3 C-0.67 2.01 -0.34 1.02 0 0 Z " fill="#96DCEC" transform="translate(129,201)"/>
<path d="M0 0 C3.375 -0.1875 3.375 -0.1875 7 0 C7.66 0.99 8.32 1.98 9 3 C6.36 3 3.72 3 1 3 C0.67 2.01 0.34 1.02 0 0 Z " fill="#342500" transform="translate(296,59)"/>
<path d="M0 0 C7.75 -0.125 7.75 -0.125 10 1 C9.67 1.99 9.34 2.98 9 4 C6.03 3.01 3.06 2.02 0 1 C0 0.67 0 0.34 0 0 Z " fill="#6FCAE5" transform="translate(113,185)"/>
</svg>
